<svg width="18" height="18" viewBox="0 0 18 18" fill="none" xmlns="http://www.w3.org/2000/svg">
<path d="M12.75 10.5C12.9489 10.5 13.1397 10.421 13.2803 10.2803C13.421 10.1397 13.5 9.94891 13.5 9.75C13.5 9.55109 13.421 9.36032 13.2803 9.21967C13.1397 9.07902 12.9489 9 12.75 9C12.5511 9 12.3603 9.07902 12.2197 9.21967C12.079 9.36032 12 9.55109 12 9.75C12 9.94891 12.079 10.1397 12.2197 10.2803C12.3603 10.421 12.5511 10.5 12.75 10.5ZM12.75 13.5C12.9489 13.5 13.1397 13.421 13.2803 13.2803C13.421 13.1397 13.5 12.9489 13.5 12.75C13.5 12.5511 13.421 12.3603 13.2803 12.2197C13.1397 12.079 12.9489 12 12.75 12C12.5511 12 12.3603 12.079 12.2197 12.2197C12.079 12.3603 12 12.5511 12 12.75C12 12.9489 12.079 13.1397 12.2197 13.2803C12.3603 13.421 12.5511 13.5 12.75 13.5ZM9.75 9.75C9.75 9.94891 9.67098 10.1397 9.53033 10.2803C9.38968 10.421 9.19891 10.5 9 10.5C8.80109 10.5 8.61032 10.421 8.46967 10.2803C8.32902 10.1397 8.25 9.94891 8.25 9.75C8.25 9.55109 8.32902 9.36032 8.46967 9.21967C8.61032 9.07902 8.80109 9 9 9C9.19891 9 9.38968 9.07902 9.53033 9.21967C9.67098 9.36032 9.75 9.55109 9.75 9.75ZM9.75 12.75C9.75 12.9489 9.67098 13.1397 9.53033 13.2803C9.38968 13.421 9.19891 13.5 9 13.5C8.80109 13.5 8.61032 13.421 8.46967 13.2803C8.32902 13.1397 8.25 12.9489 8.25 12.75C8.25 12.5511 8.32902 12.3603 8.46967 12.2197C8.61032 12.079 8.80109 12 9 12C9.19891 12 9.38968 12.079 9.53033 12.2197C9.67098 12.3603 9.75 12.5511 9.75 12.75ZM5.25 10.5C5.44891 10.5 5.63968 10.421 5.78033 10.2803C5.92098 10.1397 6 9.94891 6 9.75C6 9.55109 5.92098 9.36032 5.78033 9.21967C5.63968 9.07902 5.44891 9 5.25 9C5.05109 9 4.86032 9.07902 4.71967 9.21967C4.57902 9.36032 4.5 9.55109 4.5 9.75C4.5 9.94891 4.57902 10.1397 4.71967 10.2803C4.86032 10.421 5.05109 10.5 5.25 10.5ZM5.25 13.5C5.44891 13.5 5.63968 13.421 5.78033 13.2803C5.92098 13.1397 6 12.9489 6 12.75C6 12.5511 5.92098 12.3603 5.78033 12.2197C5.63968 12.079 5.44891 12 5.25 12C5.05109 12 4.86032 12.079 4.71967 12.2197C4.57902 12.3603 4.5 12.5511 4.5 12.75C4.5 12.9489 4.57902 13.1397 4.71967 13.2803C4.86032 13.421 5.05109 13.5 5.25 13.5Z" fill="#999999"/>
<path fill-rule="evenodd" clip-rule="evenodd" d="M5.25 1C5.39919 1 5.54226 1.05926 5.64775 1.16475C5.75324 1.27024 5.8125 1.41332 5.8125 1.5625V2.13475C6.309 2.125 6.85575 2.125 7.45725 2.125H10.542C11.1443 2.125 11.691 2.125 12.1875 2.13475V1.5625C12.1875 1.41332 12.2468 1.27024 12.3523 1.16475C12.4577 1.05926 12.6008 1 12.75 1C12.8992 1 13.0423 1.05926 13.1477 1.16475C13.2532 1.27024 13.3125 1.41332 13.3125 1.5625V2.18275C13.5075 2.19775 13.6923 2.21675 13.8668 2.23975C14.7458 2.35825 15.4575 2.60725 16.0193 3.16825C16.5803 3.73 16.8293 4.44175 16.9478 5.32075C17.0625 6.17575 17.0625 7.267 17.0625 8.6455V10.2295C17.0625 11.608 17.0625 12.7 16.9478 13.5543C16.8293 14.4333 16.5803 15.145 16.0193 15.7067C15.4575 16.2677 14.7458 16.5168 13.8668 16.6353C13.0118 16.75 11.9205 16.75 10.542 16.75H7.45875C6.08025 16.75 4.98825 16.75 4.134 16.6353C3.255 16.5168 2.54325 16.2677 1.9815 15.7067C1.4205 15.145 1.1715 14.4333 1.053 13.5543C0.938251 12.6993 0.938251 11.608 0.938251 10.2295V8.6455C0.938251 7.267 0.938251 6.175 1.053 5.32075C1.1715 4.44175 1.4205 3.73 1.9815 3.16825C2.54325 2.60725 3.255 2.35825 4.134 2.23975C4.309 2.21675 4.49375 2.19775 4.68825 2.18275V1.5625C4.68825 1.41345 4.74741 1.27049 4.85274 1.16502C4.95807 1.05955 5.10095 1.0002 5.25 1ZM4.2825 3.355C3.52875 3.45625 3.09375 3.64675 2.7765 3.964C2.45925 4.28125 2.26875 4.71625 2.1675 5.47C2.1505 5.5975 2.136 5.73225 2.124 5.87425H15.876C15.864 5.73225 15.8495 5.59725 15.8325 5.46925C15.7313 4.7155 15.5408 4.2805 15.2235 3.96325C14.9063 3.646 14.4713 3.4555 13.7168 3.35425C12.9465 3.25075 11.9303 3.24925 10.5 3.24925H7.5C6.06975 3.24925 5.05425 3.2515 4.2825 3.355ZM2.0625 8.6875C2.0625 8.047 2.0625 7.48975 2.07225 7H15.9278C15.9375 7.48975 15.9375 8.047 15.9375 8.6875V10.1875C15.9375 11.6178 15.936 12.634 15.8325 13.405C15.7313 14.1588 15.5408 14.5938 15.2235 14.911C14.9063 15.2283 14.4713 15.4188 13.7168 15.52C12.9465 15.6235 11.9303 15.625 10.5 15.625H7.5C6.06975 15.625 5.05425 15.6235 4.2825 15.52C3.52875 15.4188 3.09375 15.2283 2.7765 14.911C2.45925 14.5938 2.26875 14.1587 2.1675 13.4042C2.064 12.634 2.0625 11.6178 2.0625 10.1875V8.6875Z" fill="#999999"/>
</svg>
