<svg width="18" height="18" viewBox="0 0 18 18" fill="none" xmlns="http://www.w3.org/2000/svg">
<g clip-path="url(#clip0_325_793)">
<path fill-rule="evenodd" clip-rule="evenodd" d="M8.2605 3.6C8.3895 3.43125 8.6235 3.1875 9 3.1875C9.3765 3.1875 9.6105 3.43125 9.7395 3.6C9.86325 3.7605 9.987 3.98325 10.1145 4.212L10.2052 4.3755L10.248 4.4505L10.3222 4.46775L10.5007 4.50825C10.746 4.56375 10.9905 4.6185 11.178 4.69275C11.385 4.7745 11.6655 4.93275 11.7742 5.2815C11.8807 5.62275 11.7465 5.91225 11.6295 6.099C11.5207 6.2715 11.3557 6.4635 11.187 6.66075L11.067 6.80175L11.0055 6.8745C11.007 6.9015 11.0107 6.933 11.0145 6.97575L11.0325 7.16325C11.058 7.4265 11.0827 7.6815 11.0737 7.8855C11.0647 8.1 11.0137 8.424 10.7227 8.64375C10.4227 8.87175 10.0927 8.82225 9.88275 8.7615C9.68925 8.70675 9.4605 8.601 9.23025 8.49525L9.06375 8.418L9 8.38875L8.93625 8.41875L8.769 8.49525C8.5395 8.601 8.31075 8.70675 8.11725 8.7615C7.90725 8.8215 7.57725 8.87175 7.27725 8.64375C6.987 8.424 6.93525 8.1 6.92625 7.88625C6.91725 7.6815 6.94125 7.4265 6.9675 7.1625L6.9855 6.975L6.99525 6.8745L6.933 6.80175L6.813 6.66075C6.64425 6.4635 6.47925 6.27075 6.3705 6.09825C6.2535 5.91225 6.11925 5.62275 6.22575 5.28075C6.33375 4.9335 6.615 4.7745 6.822 4.69275C7.0095 4.6185 7.254 4.56375 7.49925 4.50825L7.67775 4.46775L7.75275 4.4505L7.79475 4.3755L7.8855 4.212C8.013 3.98325 8.13675 3.7605 8.2605 3.6ZM9 4.5255C8.957 4.6005 8.90725 4.689 8.85075 4.791L8.77725 4.923L8.76 4.953C8.7015 5.061 8.604 5.2395 8.44125 5.36325C8.2755 5.48925 8.07525 5.53275 7.959 5.55825L7.926 5.565L7.7835 5.59725C7.6515 5.62725 7.54425 5.65125 7.4535 5.6745C7.51275 5.74725 7.59 5.83875 7.6905 5.9565L7.788 6.0705L7.8105 6.096C7.8915 6.18975 8.022 6.33975 8.08275 6.53475C8.14275 6.72675 8.12175 6.92475 8.109 7.04925L8.10525 7.0845L8.09025 7.23675C8.07869 7.35165 8.06819 7.46666 8.05875 7.58175C8.1375 7.54725 8.226 7.50675 8.33175 7.458L8.466 7.3965L8.496 7.3815C8.604 7.33125 8.79075 7.24275 9 7.24275C9.20925 7.24275 9.396 7.33125 9.504 7.38225L9.534 7.3965L9.66825 7.458C9.77275 7.5065 9.86375 7.54775 9.94125 7.58175C9.93181 7.46666 9.92131 7.35165 9.90975 7.23675L9.89475 7.0845L9.891 7.04925C9.87825 6.924 9.85725 6.72675 9.91725 6.53475C9.97725 6.33975 10.1085 6.18975 10.1895 6.096L10.212 6.0705L10.3095 5.9565C10.41 5.83875 10.4872 5.74725 10.5465 5.6745C10.4557 5.652 10.3485 5.62725 10.2165 5.59725L10.074 5.565L10.041 5.5575C9.92475 5.53275 9.7245 5.48925 9.55875 5.3625C9.396 5.2395 9.2985 5.061 9.24 4.95375L9.22275 4.923L9.14925 4.791C9.09325 4.689 9.0435 4.6005 9 4.5255Z" fill="#999999"/>
<path fill-rule="evenodd" clip-rule="evenodd" d="M5.6235 1.20522C6.73955 1.02183 7.869 0.93227 9 0.93747C10.371 0.93747 11.5043 1.05822 12.3765 1.20522L12.4777 1.22247C13.2352 1.34922 13.8652 1.45497 14.3573 2.06097C14.673 2.45022 14.775 2.87097 14.7983 3.33972L15.1672 3.46272C15.5145 3.57822 15.8197 3.68022 16.0605 3.79272C16.3215 3.91422 16.5608 4.07022 16.7438 4.32447C16.9268 4.57872 16.9995 4.85472 17.0325 5.14047C17.0625 5.40522 17.0625 5.72547 17.0625 6.09297V6.20097C17.0625 6.50247 17.0625 6.76872 17.04 6.99147C17.016 7.23222 16.9627 7.46697 16.83 7.69347C16.6958 7.92072 16.5165 8.08122 16.3177 8.21922C16.134 8.34672 15.9015 8.47647 15.6375 8.62272L13.6575 9.72297C13.2525 10.5187 12.6975 11.2282 11.9325 11.7405C11.2762 12.1807 10.491 12.4597 9.5625 12.5392V14.0625H10.635C10.9384 14.0625 11.2325 14.1676 11.4671 14.36C11.7018 14.5524 11.8625 14.8202 11.922 15.1177L12.0863 15.9375H13.5C13.6492 15.9375 13.7923 15.9967 13.8977 16.1022C14.0032 16.2077 14.0625 16.3508 14.0625 16.5C14.0625 16.6492 14.0032 16.7922 13.8977 16.8977C13.7923 17.0032 13.6492 17.0625 13.5 17.0625H4.5C4.35082 17.0625 4.20774 17.0032 4.10225 16.8977C3.99676 16.7922 3.9375 16.6492 3.9375 16.5C3.9375 16.3508 3.99676 16.2077 4.10225 16.1022C4.20774 15.9967 4.35082 15.9375 4.5 15.9375H5.91375L6.078 15.1177C6.13747 14.8202 6.29821 14.5524 6.53286 14.36C6.7675 14.1676 7.06156 14.0625 7.365 14.0625H8.4375V12.5392C7.509 12.4597 6.72375 12.1807 6.0675 11.7412C5.30325 11.2282 4.7475 10.5187 4.3425 9.72297L2.3625 8.62272C2.12943 8.49917 1.90242 8.36452 1.68225 8.21922C1.47454 8.08478 1.29973 7.90536 1.17075 7.69422C1.04865 7.47875 0.97662 7.23857 0.96 6.99147C0.9375 6.76872 0.9375 6.50247 0.9375 6.20097V6.09222C0.9375 5.72622 0.9375 5.40522 0.9675 5.14047C1.0005 4.85472 1.0725 4.57797 1.25625 4.32447C1.43925 4.07022 1.6785 3.91422 1.93875 3.79197C2.181 3.67947 2.4855 3.57822 2.83275 3.46272L3.20175 3.33972C3.225 2.87022 3.327 2.45022 3.64275 2.06097C4.1355 1.45422 4.76475 1.34847 5.523 1.22247L5.6235 1.20522ZM7.06125 15.9375H10.9388L10.8188 15.3382C10.8103 15.2957 10.7873 15.2575 10.7538 15.23C10.7203 15.2025 10.6783 15.1875 10.635 15.1875H7.365C7.32167 15.1875 7.27969 15.2025 7.24619 15.23C7.21269 15.2575 7.18974 15.2957 7.18125 15.3382L7.06125 15.9375ZM3.2265 4.51722L3.216 4.52097C2.8335 4.64847 2.5905 4.73097 2.4135 4.81272C2.25075 4.88772 2.19825 4.94097 2.169 4.98222C2.13975 5.02347 2.106 5.08947 2.08575 5.26797C2.06325 5.46147 2.0625 5.71797 2.0625 6.12147V6.17622C2.0625 6.50997 2.0625 6.71922 2.079 6.87972C2.094 7.02672 2.118 7.08597 2.1405 7.12347C2.16225 7.16097 2.202 7.21047 2.3235 7.29522C2.4555 7.38672 2.6385 7.48872 2.931 7.65147L3.72975 8.09547C3.40875 6.91797 3.27975 5.65797 3.22725 4.51797M14.271 8.09547C14.592 6.91797 14.721 5.65797 14.7743 4.51797L14.7847 4.52172C15.1672 4.64922 15.4103 4.73172 15.5873 4.81347C15.75 4.88847 15.8025 4.94172 15.8317 4.98297C15.861 5.02422 15.8947 5.09022 15.915 5.26872C15.9375 5.46222 15.9382 5.71872 15.9382 6.12222V6.17697C15.9382 6.51072 15.9383 6.71997 15.9218 6.88047C15.9067 7.02747 15.8827 7.08672 15.8602 7.12422C15.8385 7.16172 15.7987 7.21122 15.6772 7.29597C15.5445 7.38747 15.3623 7.48947 15.0697 7.65222L14.271 8.09547ZM9 2.06247C7.695 2.06247 6.62475 2.17722 5.811 2.31447C4.90575 2.46747 4.716 2.52447 4.5165 2.77047C4.32 3.01197 4.30125 3.24147 4.341 4.25772C4.4085 5.95122 4.632 7.77972 5.3235 9.17022C5.6655 9.85572 6.1125 10.4167 6.6945 10.8067C7.272 11.1945 8.01825 11.4375 9 11.4375C9.9825 11.4375 10.728 11.1945 11.3062 10.8067C11.8883 10.4167 12.3345 9.85572 12.6757 9.16947C13.368 7.77972 13.5915 5.95197 13.6583 4.25697C13.6995 3.24147 13.6807 3.01197 13.4843 2.77047C13.2847 2.52447 13.0943 2.46747 12.189 2.31447C11.1349 2.14191 10.0682 2.05762 9 2.06247Z" fill="#999999"/>
</g>
<defs>
<clipPath id="clip0_325_793">
<rect width="18" height="18" fill="white"/>
</clipPath>
</defs>
</svg>
