<svg width="18" height="18" viewBox="0 0 18 18" fill="none" xmlns="http://www.w3.org/2000/svg">
<path d="M6.02227 1H2.67092C2.45143 0.999773 2.23405 1.04284 2.03122 1.12673C1.82839 1.21062 1.6441 1.33369 1.48889 1.48889C1.33369 1.6441 1.21062 1.82839 1.12673 2.03122C1.04284 2.23405 0.999773 2.45143 1 2.67092V6.02227C0.999539 6.46636 1.17516 6.89253 1.48837 7.20736C1.80158 7.52219 2.22683 7.70001 2.67092 7.70184H6.02227C6.2429 7.70206 6.46141 7.65878 6.66528 7.57445C6.86916 7.49013 7.0544 7.36642 7.21041 7.21041C7.36642 7.0544 7.49013 6.86916 7.57445 6.66528C7.65878 6.46141 7.70206 6.2429 7.70184 6.02227V2.67092C7.70001 2.22683 7.52219 1.80158 7.20736 1.48837C6.89253 1.17516 6.46636 0.999539 6.02227 1ZM15.3291 1H11.9777C11.5336 0.999539 11.1075 1.17516 10.7926 1.48837C10.4778 1.80158 10.3 2.22683 10.2982 2.67092V6.02227C10.2984 6.46765 10.4754 6.89472 10.7903 7.20965C11.1053 7.52458 11.5323 7.70161 11.9777 7.70184H15.3291C15.7732 7.70001 16.1984 7.52219 16.5116 7.20736C16.8248 6.89253 17.0005 6.46636 17 6.02227V2.67092C17.0002 2.45143 16.9572 2.23405 16.8733 2.03122C16.7894 1.82839 16.6663 1.6441 16.5111 1.48889C16.3559 1.33369 16.1716 1.21062 15.9688 1.12673C15.766 1.04284 15.5486 0.999773 15.3291 1ZM15.3291 10.2973H11.9777C11.5335 10.2968 11.1072 10.4726 10.7923 10.786C10.4775 11.0994 10.2998 11.5248 10.2982 11.9691V15.3204C10.2979 15.5411 10.3412 15.7596 10.4255 15.9634C10.5099 16.1673 10.6336 16.3526 10.7896 16.5086C10.9456 16.6646 11.1308 16.7883 11.3347 16.8726C11.5386 16.9569 11.7571 17.0002 11.9777 17H15.3291C15.7732 16.9982 16.1984 16.8204 16.5116 16.5055C16.8248 16.1907 17.0005 15.7645 17 15.3204V11.9691C17.0002 11.7496 16.9572 11.5322 16.8733 11.3294C16.7894 11.1265 16.6663 10.9423 16.5111 10.7871C16.3559 10.6318 16.1716 10.5088 15.9688 10.4249C15.766 10.341 15.5486 10.2971 15.3291 10.2973ZM6.02227 10.2973H2.67092C2.22689 10.2998 1.80191 10.478 1.48882 10.7928C1.17573 11.1077 0.999994 11.5337 1 11.9777V15.3291C0.999773 15.5486 1.04284 15.766 1.12673 15.9688C1.21062 16.1716 1.33369 16.3559 1.48889 16.5111C1.6441 16.6663 1.82839 16.7894 2.03122 16.8733C2.23405 16.9572 2.45143 17.0002 2.67092 17H6.02227C6.46636 17.0005 6.89253 16.8248 7.20736 16.5116C7.52219 16.1984 7.70001 15.7732 7.70184 15.3291V11.9777C7.70206 11.7571 7.65878 11.5386 7.57445 11.3347C7.49013 11.1308 7.36642 10.9456 7.21041 10.7896C7.0544 10.6336 6.86916 10.5099 6.66528 10.4255C6.46141 10.3412 6.2429 10.2971 6.02227 10.2973Z" stroke="#999999" stroke-width="1.3" stroke-linecap="round" stroke-linejoin="round"/>
</svg>
