<?xml version="1.0" encoding="utf-8" ?>
<svg baseProfile="full" height="27" version="1.1" width="30" xmlns="http://www.w3.org/2000/svg" xmlns:ev="http://www.w3.org/2001/xml-events" xmlns:xlink="http://www.w3.org/1999/xlink"><defs /><rect fill="black" height="1" width="1" x="10" y="7" /><rect fill="black" height="1" width="1" x="17" y="7" /><rect fill="black" height="1" width="1" x="18" y="7" /><rect fill="black" height="1" width="1" x="8" y="8" /><rect fill="black" height="1" width="1" x="9" y="8" /><rect fill="black" height="1" width="1" x="10" y="8" /><rect fill="black" height="1" width="1" x="11" y="8" /><rect fill="black" height="1" width="1" x="12" y="8" /><rect fill="black" height="1" width="1" x="13" y="8" /><rect fill="black" height="1" width="1" x="14" y="8" /><rect fill="black" height="1" width="1" x="15" y="8" /><rect fill="black" height="1" width="1" x="16" y="8" /><rect fill="black" height="1" width="1" x="17" y="8" /><rect fill="black" height="1" width="1" x="18" y="8" /><rect fill="black" height="1" width="1" x="19" y="8" /><rect fill="black" height="1" width="1" x="8" y="9" /><rect fill="black" height="1" width="1" x="9" y="9" /><rect fill="black" height="1" width="1" x="10" y="9" /><rect fill="black" height="1" width="1" x="11" y="9" /><rect fill="black" height="1" width="1" x="12" y="9" /><rect fill="black" height="1" width="1" x="13" y="9" /><rect fill="black" height="1" width="1" x="14" y="9" /><rect fill="black" height="1" width="1" x="15" y="9" /><rect fill="black" height="1" width="1" x="16" y="9" /><rect fill="black" height="1" width="1" x="17" y="9" /><rect fill="black" height="1" width="1" x="18" y="9" /><rect fill="black" height="1" width="1" x="19" y="9" /><rect fill="black" height="1" width="1" x="8" y="10" /><rect fill="black" height="1" width="1" x="9" y="10" /><rect fill="black" height="1" width="1" x="10" y="10" /><rect fill="black" height="1" width="1" x="11" y="10" /><rect fill="black" height="1" width="1" x="12" y="10" /><rect fill="black" height="1" width="1" x="13" y="10" /><rect fill="black" height="1" width="1" x="14" y="10" /><rect fill="black" height="1" width="1" x="15" y="10" /><rect fill="black" height="1" width="1" x="16" y="10" /><rect fill="black" height="1" width="1" x="17" y="10" /><rect fill="black" height="1" width="1" x="18" y="10" /><rect fill="black" height="1" width="1" x="19" y="10" /><rect fill="black" height="1" width="1" x="8" y="11" /><rect fill="black" height="1" width="1" x="19" y="11" /><rect fill="black" height="1" width="1" x="8" y="12" /><rect fill="black" height="1" width="1" x="19" y="12" /><rect fill="black" height="1" width="1" x="8" y="13" /><rect fill="black" height="1" width="1" x="19" y="13" /><rect fill="black" height="1" width="1" x="8" y="14" /><rect fill="black" height="1" width="1" x="19" y="14" /><rect fill="black" height="1" width="1" x="8" y="15" /><rect fill="black" height="1" width="1" x="19" y="15" /><rect fill="black" height="1" width="1" x="8" y="16" /><rect fill="black" height="1" width="1" x="19" y="16" /><rect fill="black" height="1" width="1" x="8" y="17" /><rect fill="black" height="1" width="1" x="19" y="17" /><rect fill="black" height="1" width="1" x="8" y="18" /><rect fill="black" height="1" width="1" x="19" y="18" /><rect fill="black" height="1" width="1" x="8" y="19" /><rect fill="black" height="1" width="1" x="9" y="19" /><rect fill="black" height="1" width="1" x="10" y="19" /><rect fill="black" height="1" width="1" x="11" y="19" /><rect fill="black" height="1" width="1" x="12" y="19" /><rect fill="black" height="1" width="1" x="13" y="19" /><rect fill="black" height="1" width="1" x="14" y="19" /><rect fill="black" height="1" width="1" x="15" y="19" /><rect fill="black" height="1" width="1" x="16" y="19" /><rect fill="black" height="1" width="1" x="17" y="19" /><rect fill="black" height="1" width="1" x="18" y="19" /><rect fill="black" height="1" width="1" x="19" y="19" /></svg>