<svg width="34" height="34" viewBox="0 0 34 34" fill="none" xmlns="http://www.w3.org/2000/svg">
<rect x="0.5" y="0.5" width="33" height="33" rx="8.5" stroke="#FF0000"/>
<path d="M10.2778 11.8329H10.4123C10.9042 11.8204 11.3808 11.6596 11.7798 11.3718C12.1789 11.084 12.4818 10.6824 12.6489 10.2196L12.6905 10.0937L12.8091 9.73804C12.9105 9.4337 12.9618 9.28215 13.0291 9.15259C13.1613 8.89885 13.3511 8.67958 13.5833 8.51234C13.8155 8.3451 14.0836 8.23453 14.3662 8.18948C14.5092 8.16626 14.6693 8.16626 14.9895 8.16626H19.0106C19.3308 8.16626 19.4909 8.16626 19.6339 8.18948C19.9165 8.23453 20.1846 8.3451 20.4168 8.51234C20.649 8.67958 20.8388 8.89885 20.9711 9.15259C21.0383 9.28215 21.0896 9.4337 21.1911 9.73804L21.3096 10.0937C21.4645 10.6086 21.7848 11.058 22.221 11.3725C22.6572 11.6869 23.1848 11.8487 23.7223 11.8329" stroke="#FF0000" stroke-width="1.5"/>
<path d="M25.1667 11.8337H8.83337M23.5651 14.1671L23.1231 20.6071C22.9531 23.0841 22.8685 24.3227 22.0374 25.0777C21.2064 25.8328 19.9275 25.8337 17.3719 25.8337H16.6282C14.0725 25.8337 12.7937 25.8337 11.9626 25.0777C11.1316 24.3227 11.0461 23.0841 10.877 20.6071L10.435 14.1671M14.5981 16.5004L15.0785 21.1671M19.402 16.5004L18.9216 21.1671" stroke="#FF0000" stroke-width="1.5" stroke-linecap="round"/>
</svg>
