<svg width="26" height="24" viewBox="0 0 26 24" fill="none" xmlns="http://www.w3.org/2000/svg">
<path d="M6.27783 6.83293H6.41228C6.90416 6.82036 7.38079 6.65964 7.77985 6.3718C8.17891 6.08395 8.48181 5.68238 8.64894 5.21959L8.6905 5.0937L8.80905 4.73804C8.9105 4.4337 8.96183 4.28215 9.02905 4.15259C9.16131 3.89885 9.35112 3.67958 9.5833 3.51234C9.81549 3.3451 10.0836 3.23453 10.3662 3.18948C10.5092 3.16626 10.6693 3.16626 10.9895 3.16626H15.0106C15.3308 3.16626 15.4909 3.16626 15.6339 3.18948C15.9165 3.23453 16.1846 3.3451 16.4168 3.51234C16.649 3.67958 16.8388 3.89885 16.9711 4.15259C17.0383 4.28215 17.0896 4.4337 17.1911 4.73804L17.3096 5.0937C17.4645 5.60859 17.7848 6.05805 18.221 6.37247C18.6572 6.68689 19.1848 6.84873 19.7223 6.83293" stroke="#FF0000" stroke-width="1.5"/>
<path d="M21.1667 6.83374H4.83337M19.5651 9.16707L19.1231 15.6071C18.9531 18.0841 18.8685 19.3227 18.0374 20.0777C17.2064 20.8328 15.9275 20.8337 13.3719 20.8337H12.6282C10.0725 20.8337 8.79373 20.8337 7.96265 20.0777C7.13157 19.3227 7.04606 18.0841 6.87696 15.6071L6.435 9.16707M10.5981 11.5004L11.0785 16.1671M15.402 11.5004L14.9216 16.1671" stroke="#FF0000" stroke-width="1.5" stroke-linecap="round"/>
</svg>
