<svg width="14" height="14" viewBox="0 0 14 14" fill="none" xmlns="http://www.w3.org/2000/svg">
<path d="M7.39748 10.2351C7.34703 10.2903 7.28564 10.3343 7.21722 10.3645C7.14881 10.3946 7.07486 10.4102 7.0001 10.4102C6.92533 10.4102 6.85139 10.3946 6.78297 10.3645C6.71455 10.3343 6.65316 10.2903 6.60271 10.2351L3.73092 7.09405C3.63682 6.9883 3.58815 6.84975 3.59544 6.70838C3.60273 6.56702 3.6654 6.4342 3.76987 6.33869C3.87435 6.24318 4.01224 6.19265 4.15369 6.19804C4.29514 6.20343 4.42878 6.2643 4.52569 6.36749L6.46128 8.48544V0.538462C6.46128 0.395653 6.51801 0.258693 6.61899 0.157712C6.71997 0.0567305 6.85693 0 6.99974 0C7.14255 0 7.27951 0.0567305 7.38049 0.157712C7.48147 0.258693 7.5382 0.395653 7.5382 0.538462V8.48472L9.47451 6.36677C9.57095 6.26138 9.70531 6.19861 9.84803 6.19228C9.99075 6.18596 10.1301 6.23658 10.2355 6.33303C10.3409 6.42947 10.4037 6.56383 10.41 6.70655C10.4163 6.84927 10.3657 6.98866 10.2693 7.09405L7.39748 10.2351Z" fill="white"/>
<path d="M1.07692 9.1537C1.07692 9.01089 1.02019 8.87393 0.919211 8.77295C0.81823 8.67197 0.68127 8.61523 0.538462 8.61523C0.395653 8.61523 0.258693 8.67197 0.157712 8.77295C0.0567305 8.87393 0 9.01089 0 9.1537V9.19318C0 10.1746 7.48879e-08 10.9665 0.0840001 11.589C0.170154 12.2351 0.356821 12.7793 0.788308 13.2115C1.22051 13.6437 1.76472 13.829 2.41087 13.9166C3.03333 13.9999 3.82523 13.9998 4.80667 13.9998H9.19333C10.1748 13.9998 10.9667 13.9999 11.5891 13.9166C12.2353 13.829 12.7795 13.6437 13.2117 13.2115C13.6439 12.7793 13.8291 12.2351 13.9167 11.589C14 10.9665 14 10.1746 14 9.19318V9.1537C14 9.01089 13.9433 8.87393 13.8423 8.77295C13.7413 8.67197 13.6043 8.61523 13.4615 8.61523C13.3187 8.61523 13.1818 8.67197 13.0808 8.77295C12.9798 8.87393 12.9231 9.01089 12.9231 9.1537C12.9231 10.184 12.9216 10.9026 12.8491 11.4454C12.7781 11.9724 12.6481 12.2509 12.4499 12.4498C12.2511 12.6487 11.9725 12.7779 11.4448 12.849C10.9028 12.9215 10.1841 12.9229 9.15385 12.9229H4.84615C3.8159 12.9229 3.09651 12.9215 2.55446 12.849C2.02749 12.7779 1.74892 12.648 1.55005 12.4498C1.35118 12.2509 1.22195 11.9724 1.15087 11.4447C1.07836 10.9026 1.07692 10.184 1.07692 9.1537Z" fill="white"/>
</svg>
