<svg width="34" height="34" viewBox="0 0 34 34" fill="none" xmlns="http://www.w3.org/2000/svg">
<rect x="0.5" y="0.5" width="33" height="33" rx="8.5" stroke="#999999"/>
<path fill-rule="evenodd" clip-rule="evenodd" d="M8 12.3713C8 11.212 8.46055 10.1001 9.28032 9.28032C10.1001 8.46055 11.212 8 12.3713 8H17C17.2387 8 17.4676 8.09482 17.6364 8.2636C17.8052 8.43239 17.9 8.66131 17.9 8.9C17.9 9.13869 17.8052 9.36761 17.6364 9.5364C17.4676 9.70518 17.2387 9.8 17 9.8H12.3713C11.6893 9.8 11.0353 10.0709 10.5531 10.5531C10.0709 11.0353 9.8 11.6893 9.8 12.3713V21.6287C9.8 22.3107 10.0709 22.9647 10.5531 23.4469C11.0353 23.9291 11.6893 24.2 12.3713 24.2H21.6287C22.3107 24.2 22.9647 23.9291 23.4469 23.4469C23.9291 22.9647 24.2 22.3107 24.2 21.6287V17C24.2 16.7613 24.2948 16.5324 24.4636 16.3636C24.6324 16.1948 24.8613 16.1 25.1 16.1C25.3387 16.1 25.5676 16.1948 25.7364 16.3636C25.9052 16.5324 26 16.7613 26 17V21.6287C26 22.788 25.5395 23.8999 24.7197 24.7197C23.8999 25.5395 22.788 26 21.6287 26H12.3713C11.212 26 10.1001 25.5395 9.28032 24.7197C8.46055 23.8999 8 22.788 8 21.6287V12.3713Z" fill="#999999"/>
<path fill-rule="evenodd" clip-rule="evenodd" d="M19.8234 18.097L17.8389 19.294L16.9092 17.7523L18.8937 16.5553L18.8964 16.5535C18.9724 16.5077 19.0426 16.4526 19.1052 16.3897L23.6142 11.8573C23.6593 11.8117 23.7029 11.7646 23.7447 11.716C24.0426 11.3686 24.4836 10.681 23.9499 10.1446C23.499 9.69097 22.8528 10.1194 22.4343 10.4875C22.322 10.5864 22.2139 10.69 22.1103 10.798L22.0797 10.8286L17.6337 15.2971C17.5281 15.402 17.4454 15.5276 17.3907 15.6661L16.6491 17.5318C16.635 17.5669 16.6324 17.6055 16.6415 17.6422C16.6506 17.6789 16.6711 17.7118 16.7 17.7362C16.7289 17.7606 16.7647 17.7753 16.8024 17.7782C16.8402 17.7811 16.8769 17.772 16.9092 17.7523L17.8389 19.294C16.2144 20.2732 14.2749 18.628 14.9769 16.8658L15.7194 15.001C15.8639 14.6366 16.0814 14.3055 16.3584 14.0281L20.8035 9.55867L20.8296 9.53257C20.9619 9.39757 21.4065 8.94217 21.9456 8.61457C22.2399 8.43727 22.7097 8.20237 23.2902 8.15737C23.9562 8.10427 24.6672 8.31397 25.2252 8.87467C25.6523 9.29658 25.9209 9.85283 25.9857 10.4497C26.0303 10.9149 25.9591 11.3839 25.7787 11.815C25.5177 12.4603 25.0821 12.9346 24.8904 13.1263L20.3814 17.6587C20.2134 17.8273 20.0274 17.9734 19.8234 18.097ZM23.8311 11.6836C23.8311 11.6836 23.8275 11.6863 23.8194 11.689L23.8311 11.6836Z" fill="#999999"/>
</svg>
