<svg width="18" height="18" viewBox="0 0 18 18" fill="none" xmlns="http://www.w3.org/2000/svg">
<path fill-rule="evenodd" clip-rule="evenodd" d="M0 4.3713C0 3.21196 0.460546 2.1001 1.28032 1.28032C2.1001 0.460546 3.21196 0 4.3713 0H9C9.23869 0 9.46761 0.0948211 9.6364 0.263604C9.80518 0.432387 9.9 0.661305 9.9 0.9C9.9 1.13869 9.80518 1.36761 9.6364 1.5364C9.46761 1.70518 9.23869 1.8 9 1.8H4.3713C3.68935 1.8 3.03533 2.0709 2.55312 2.55312C2.0709 3.03533 1.8 3.68935 1.8 4.3713V13.6287C1.8 14.3107 2.0709 14.9647 2.55312 15.4469C3.03533 15.9291 3.68935 16.2 4.3713 16.2H13.6287C14.3107 16.2 14.9647 15.9291 15.4469 15.4469C15.9291 14.9647 16.2 14.3107 16.2 13.6287V9C16.2 8.7613 16.2948 8.53239 16.4636 8.3636C16.6324 8.19482 16.8613 8.1 17.1 8.1C17.3387 8.1 17.5676 8.19482 17.7364 8.3636C17.9052 8.53239 18 8.7613 18 9V13.6287C18 14.788 17.5395 15.8999 16.7197 16.7197C15.8999 17.5395 14.788 18 13.6287 18H4.3713C3.21196 18 2.1001 17.5395 1.28032 16.7197C0.460546 15.8999 0 14.788 0 13.6287V4.3713Z" fill="#999999"/>
<path fill-rule="evenodd" clip-rule="evenodd" d="M11.8234 10.097L9.83887 11.294L8.90917 9.75227L10.8937 8.55527L10.8964 8.55347C10.9724 8.50766 11.0426 8.45265 11.1052 8.38967L15.6142 3.85727C15.6593 3.81174 15.7029 3.76461 15.7447 3.71597C16.0426 3.36857 16.4836 2.68097 15.9499 2.14457C15.499 1.69097 14.8528 2.11937 14.4343 2.48747C14.322 2.58644 14.2139 2.69003 14.1103 2.79797L14.0797 2.82857L9.63367 7.29707C9.52811 7.40201 9.44538 7.52764 9.39067 7.66607L8.64907 9.53177C8.63501 9.56688 8.63236 9.60552 8.6415 9.64222C8.65064 9.67892 8.67111 9.7118 8.7 9.73621C8.72889 9.76062 8.76473 9.7753 8.80244 9.77819C8.84015 9.78107 8.87691 9.772 8.90917 9.75227L9.83887 11.294C8.21437 12.2732 6.27487 10.628 6.97687 8.86577L7.71937 7.00097C7.86394 6.63656 8.08138 6.3055 8.35837 6.02807L12.8035 1.55867L12.8296 1.53257C12.9619 1.39757 13.4065 0.942172 13.9456 0.614572C14.2399 0.437272 14.7097 0.202372 15.2902 0.157372C15.9562 0.104272 16.6672 0.313972 17.2252 0.874672C17.6523 1.29658 17.9209 1.85283 17.9857 2.44967C18.0303 2.91488 17.9591 3.38389 17.7787 3.81497C17.5177 4.46027 17.0821 4.93457 16.8904 5.12627L12.3814 9.65867C12.2134 9.82727 12.0274 9.97337 11.8234 10.097ZM15.8311 3.68357C15.8311 3.68357 15.8275 3.68627 15.8194 3.68897L15.8311 3.68357Z" fill="#999999"/>
</svg>
