<svg width="20" height="21" viewBox="0 0 20 21" fill="none" xmlns="http://www.w3.org/2000/svg">
<path d="M12.9833 10.5385C12.9833 12.1885 11.6499 13.5218 9.99993 13.5218C8.34993 13.5218 7.0166 12.1885 7.0166 10.5385C7.0166 8.88851 8.34993 7.55518 9.99993 7.55518C11.6499 7.55518 12.9833 8.88851 12.9833 10.5385Z" stroke="#D9D9D9" stroke-width="1.5" stroke-linecap="round" stroke-linejoin="round"/>
<path d="M9.99999 17.4302C12.9417 17.4302 15.6833 15.6969 17.5917 12.6969C18.3417 11.5219 18.3417 9.54688 17.5917 8.37188C15.6833 5.37188 12.9417 3.63855 9.99999 3.63855C7.05832 3.63855 4.31666 5.37188 2.40833 8.37188C1.65833 9.54688 1.65833 11.5219 2.40833 12.6969C4.31666 15.6969 7.05832 17.4302 9.99999 17.4302Z" stroke="#D9D9D9" stroke-width="1.5" stroke-linecap="round" stroke-linejoin="round"/>
</svg>
