<svg width="40" height="40" viewBox="0 0 40 40" fill="none" xmlns="http://www.w3.org/2000/svg">
<path d="M22.9167 16.6666C22.9167 17.3566 23.4767 17.9166 24.1667 17.9166H25.3167L21.9617 21.2716C21.923 21.3104 21.877 21.3412 21.8264 21.3622C21.7758 21.3832 21.7215 21.394 21.6667 21.394C21.6119 21.394 21.5576 21.3832 21.507 21.3622C21.4564 21.3412 21.4104 21.3104 21.3717 21.2716L18.7283 18.6283C18.1814 18.0818 17.4399 17.7747 16.6667 17.7747C15.8935 17.7747 15.1519 18.0818 14.605 18.6283L10.7833 22.45C10.6605 22.5644 10.562 22.7024 10.4937 22.8557C10.4254 23.0091 10.3887 23.1746 10.3857 23.3424C10.3827 23.5103 10.4136 23.677 10.4765 23.8326C10.5393 23.9883 10.6329 24.1297 10.7516 24.2484C10.8703 24.3671 11.0117 24.4606 11.1673 24.5235C11.323 24.5864 11.4897 24.6172 11.6575 24.6143C11.8254 24.6113 11.9909 24.5746 12.1442 24.5063C12.2976 24.4379 12.4356 24.3394 12.55 24.2166L16.3717 20.395C16.4104 20.3562 16.4564 20.3254 16.507 20.3044C16.5576 20.2834 16.6119 20.2725 16.6667 20.2725C16.7215 20.2725 16.7758 20.2834 16.8264 20.3044C16.877 20.3254 16.923 20.3562 16.9617 20.395L19.605 23.0383C20.1519 23.5848 20.8935 23.8918 21.6667 23.8918C22.4399 23.8918 23.1814 23.5848 23.7283 23.0383L27.0833 19.685V20.8333C27.0833 21.1648 27.215 21.4828 27.4495 21.7172C27.6839 21.9516 28.0018 22.0833 28.3333 22.0833C28.6649 22.0833 28.9828 21.9516 29.2172 21.7172C29.4517 21.4828 29.5833 21.1648 29.5833 20.8333V16.6666C29.5833 16.3351 29.4517 16.0172 29.2172 15.7827C28.9828 15.5483 28.6649 15.4166 28.3333 15.4166H24.1667C23.8352 15.4166 23.5172 15.5483 23.2828 15.7827C23.0484 16.0172 22.9167 16.3351 22.9167 16.6666Z" fill="#1093ED"/>
<path fill-rule="evenodd" clip-rule="evenodd" d="M19.905 2.08337C16.0567 2.08337 13.0417 2.08337 10.6883 2.40004C8.28168 2.72337 6.38168 3.40004 4.89001 4.89004C3.39834 6.38171 2.72334 8.28171 2.40001 10.69C2.08334 13.0417 2.08334 16.0567 2.08334 19.905V20.095C2.08334 23.9434 2.08334 26.9584 2.40001 29.3117C2.72334 31.7184 3.40001 33.6184 4.89001 35.11C6.38168 36.6017 8.28168 37.2767 10.69 37.6C13.0417 37.9167 16.0567 37.9167 19.905 37.9167H20.095C23.9433 37.9167 26.9583 37.9167 29.3117 37.6C31.7183 37.2767 33.6183 36.6 35.11 35.11C36.6017 33.6184 37.2767 31.7184 37.6 29.31C37.9167 26.9584 37.9167 23.9434 37.9167 20.095V19.905C37.9167 16.0567 37.9167 13.0417 37.6 10.6884C37.2767 8.28171 36.6 6.38171 35.11 4.89004C33.6183 3.39837 31.7183 2.72337 29.31 2.40004C26.9583 2.08337 23.9433 2.08337 20.095 2.08337H19.905ZM6.65834 6.65837C7.60834 5.70837 8.89168 5.16337 11.0233 4.87671C13.19 4.58671 16.0367 4.58337 20 4.58337C23.9633 4.58337 26.81 4.58671 28.9767 4.87671C31.1083 5.16337 32.3933 5.71004 33.3433 6.65837C34.2917 7.60837 34.8367 8.89171 35.1233 11.0234C35.4133 13.19 35.4167 16.0367 35.4167 20C35.4167 23.9634 35.4133 26.81 35.1233 28.9767C34.8367 31.1084 34.29 32.3934 33.3417 33.3434C32.3917 34.2917 31.1083 34.8367 28.9767 35.1234C26.81 35.4134 23.9633 35.4167 20 35.4167C16.0367 35.4167 13.19 35.4134 11.0233 35.1234C8.89168 34.8367 7.60668 34.29 6.65668 33.3417C5.70834 32.3917 5.16334 31.1084 4.87668 28.9767C4.58668 26.81 4.58334 23.9634 4.58334 20C4.58334 16.0367 4.58668 13.19 4.87668 11.0234C5.16334 8.89171 5.71001 7.60837 6.65834 6.65837Z" fill="#1093ED"/>
</svg>
