<svg width="76" height="76" viewBox="0 0 76 76" fill="none" xmlns="http://www.w3.org/2000/svg">
<path d="M32.1428 30.857C32.1428 31.9936 31.6913 33.0837 30.8876 33.8875C30.0839 34.6912 28.9938 35.1427 27.8571 35.1427C26.7205 35.1427 25.6304 34.6912 24.8267 33.8875C24.0229 33.0837 23.5714 31.9936 23.5714 30.857C23.5714 29.7204 24.0229 28.6303 24.8267 27.8265C25.6304 27.0228 26.7205 26.5713 27.8571 26.5713C28.9938 26.5713 30.0839 27.0228 30.8876 27.8265C31.6913 28.6303 32.1428 29.7204 32.1428 30.857Z" fill="white"/>
<path d="M20.7143 18C19.1988 18 17.7453 18.602 16.6737 19.6737C15.602 20.7453 15 22.1988 15 23.7143V52.2857C15 53.8012 15.602 55.2547 16.6737 56.3263C17.7453 57.398 19.1988 58 20.7143 58H55C56.5155 58 57.969 57.398 59.0406 56.3263C60.1122 55.2547 60.7143 53.8012 60.7143 52.2857V23.7143C60.7143 22.1988 60.1122 20.7453 59.0406 19.6737C57.969 18.602 56.5155 18 55 18H20.7143ZM55 20.8571C55.7578 20.8571 56.4845 21.1582 57.0203 21.694C57.5561 22.2298 57.8571 22.9565 57.8571 23.7143V42.2857L47.0657 36.7229C46.7978 36.5886 46.4944 36.5421 46.1986 36.5898C45.9027 36.6374 45.6293 36.777 45.4171 36.9886L34.8171 47.5886L27.2171 42.5257C26.9427 42.343 26.6136 42.2609 26.2855 42.2931C25.9575 42.3254 25.6507 42.4702 25.4171 42.7029L17.8571 49.4286V23.7143C17.8571 22.9565 18.1582 22.2298 18.694 21.694C19.2298 21.1582 19.9565 20.8571 20.7143 20.8571H55Z" fill="white"/>
</svg>
