<svg width="16" height="16" viewBox="0 0 16 16" fill="none" xmlns="http://www.w3.org/2000/svg">
<path fill-rule="evenodd" clip-rule="evenodd" d="M10.0571 0.685714C10.0571 0.307005 10.3641 0 10.7429 0H13.4857C14.8744 0 16 1.12569 16 2.51429V13.4857C16 14.8743 14.8743 16 13.4857 16H10.7429C10.3641 16 10.0571 15.693 10.0571 15.3143C10.0571 14.9356 10.3641 14.6286 10.7429 14.6286H13.4857C14.1169 14.6286 14.6286 14.1169 14.6286 13.4857V2.51429C14.6286 1.8831 14.1169 1.37143 13.4857 1.37143H10.7429C10.3641 1.37143 10.0571 1.06442 10.0571 0.685714ZM4.82773 3.85798C5.09552 4.12577 5.09552 4.55994 4.82773 4.82773L2.34117 7.31429H11.6571C12.0359 7.31429 12.3429 7.62129 12.3429 8C12.3429 8.37871 12.0359 8.68571 11.6571 8.68571H2.34118L4.82773 11.1723C5.09552 11.4401 5.09552 11.8742 4.82773 12.142C4.55994 12.4098 4.12577 12.4098 3.85798 12.142L0.200841 8.48487C-0.066947 8.21709 -0.066947 7.78291 0.200841 7.51513L3.85798 3.85798C4.12577 3.5902 4.55994 3.5902 4.82773 3.85798Z" fill="#999999"/>
</svg>
