<svg width="18" height="18" viewBox="0 0 18 18" fill="none" xmlns="http://www.w3.org/2000/svg">
<g clip-path="url(#clip0_351_3028)">
<path d="M9.375 2.25H8.625C5.2665 2.25 3.5865 2.25 2.54325 3.29325C1.5 4.3365 1.5 6.01575 1.5 9.375C1.5 12.7335 1.5 14.4135 2.54325 15.4567C3.5865 16.5 5.26575 16.5 8.625 16.5C11.9835 16.5 13.6635 16.5 14.7067 15.4567C15.75 14.4135 15.75 12.7343 15.75 9.375V8.625" stroke="#999999" stroke-width="1.5" stroke-linecap="round" stroke-linejoin="round"/>
<path d="M5.25 8.25H8.25M5.25 12H11.25M16.5 4.125C16.5 4.82119 16.2234 5.48887 15.7312 5.98116C15.2389 6.47344 14.5712 6.75 13.875 6.75C13.1788 6.75 12.5111 6.47344 12.0188 5.98116C11.5266 5.48887 11.25 4.82119 11.25 4.125C11.25 3.42881 11.5266 2.76113 12.0188 2.26884C12.5111 1.77656 13.1788 1.5 13.875 1.5C14.5712 1.5 15.2389 1.77656 15.7312 2.26884C16.2234 2.76113 16.5 3.42881 16.5 4.125Z" stroke="#999999" stroke-width="1.5" stroke-linecap="round" stroke-linejoin="round"/>
</g>
<defs>
<clipPath id="clip0_351_3028">
<rect width="18" height="18" fill="white"/>
</clipPath>
</defs>
</svg>
