<svg width="18" height="18" viewBox="0 0 18 18" fill="none" xmlns="http://www.w3.org/2000/svg">
<path d="M0 0H6.75V6.75H0V0ZM18 0V6.75H11.25V0H18ZM11.25 12.375H13.5V10.125H11.25V7.875H13.5V10.125H15.75V7.875H18V10.125H15.75V12.375H18V15.75H15.75V18H13.5V15.75H10.125V18H7.875V13.5H11.25V12.375ZM13.5 12.375V15.75H15.75V12.375H13.5ZM0 18V11.25H6.75V18H0ZM2.25 2.25V4.5H4.5V2.25H2.25ZM13.5 2.25V4.5H15.75V2.25H13.5ZM2.25 13.5V15.75H4.5V13.5H2.25ZM0 7.875H2.25V10.125H0V7.875ZM5.625 7.875H10.125V12.375H7.875V10.125H5.625V7.875ZM7.875 2.25H10.125V6.75H7.875V2.25Z" fill="#1093ED"/>
</svg>
