<svg width="20" height="20" viewBox="0 0 20 20" fill="none" xmlns="http://www.w3.org/2000/svg">
<g clip-path="url(#clip0_400_335)">
<path d="M14.6775 12.93C15.8879 11.2784 16.43 9.23062 16.1954 7.19644C15.9608 5.16226 14.9668 3.29168 13.4122 1.95892C11.8577 0.626155 9.85721 -0.070492 7.81107 0.00834944C5.76493 0.0871909 3.824 0.935706 2.37661 2.38414C0.929213 3.83257 0.0820868 5.7741 0.00470953 7.8203C-0.0726677 9.86649 0.62541 11.8665 1.95928 13.4201C3.29316 14.9737 5.16445 15.9663 7.1988 16.1995C9.23314 16.4326 11.2805 15.8891 12.9313 14.6775H12.93C12.9675 14.7275 13.0075 14.775 13.0525 14.8213L17.865 19.6338C18.0994 19.8683 18.4174 20.0001 18.749 20.0003C19.0805 20.0004 19.3986 19.8688 19.6331 19.6344C19.8677 19.4 19.9995 19.082 19.9997 18.7504C19.9998 18.4189 19.8682 18.1008 19.6338 17.8663L14.8213 13.0538C14.7766 13.0085 14.7285 12.968 14.6775 12.93ZM15 8.125C15 9.02784 14.8222 9.92184 14.4767 10.756C14.1312 11.5901 13.6248 12.348 12.9864 12.9864C12.348 13.6248 11.5901 14.1312 10.756 14.4767C9.92186 14.8222 9.02786 15 8.12502 15C7.22219 15 6.32819 14.8222 5.49407 14.4767C4.65996 14.1312 3.90207 13.6248 3.26366 12.9864C2.62526 12.348 2.11885 11.5901 1.77335 10.756C1.42785 9.92184 1.25002 9.02784 1.25002 8.125C1.25002 6.30164 1.97435 4.55296 3.26366 3.26364C4.55298 1.97433 6.30166 1.25 8.12502 1.25C9.94839 1.25 11.6971 1.97433 12.9864 3.26364C14.2757 4.55296 15 6.30164 15 8.125Z" fill="black"/>
</g>
<defs>
<clipPath id="clip0_400_335">
<rect width="20" height="20" fill="white"/>
</clipPath>
</defs>
</svg>
