<svg width="16" height="16" viewBox="0 0 16 16" fill="none" xmlns="http://www.w3.org/2000/svg">
<path d="M8 4.71777V7.99982L10.0513 10.0511" stroke="#999999" stroke-linecap="round" stroke-linejoin="round"/>
<path d="M1.71311 3.79127L1.09773 3.79436C1.09942 4.13181 1.37256 4.40495 1.71001 4.40665L1.71311 3.79127ZM3.79867 4.41714C4.13854 4.41885 4.41543 4.14472 4.41714 3.80486C4.41885 3.46499 4.14472 3.18809 3.80486 3.18639L3.79867 4.41714ZM2.31799 1.69952C2.31627 1.35966 2.03938 1.08552 1.69952 1.08723C1.35966 1.08894 1.08552 1.36584 1.08724 1.7057L2.31799 1.69952ZM1.23077 8C1.23077 7.66014 0.955249 7.38462 0.615385 7.38462C0.27552 7.38462 0 7.66014 0 8H1.23077ZM12.0004 14.9294C12.2946 14.7592 12.3952 14.3828 12.225 14.0885C12.0548 13.7944 11.6784 13.6938 11.3842 13.864L12.0004 14.9294ZM13.864 11.3842C13.6938 11.6784 13.7944 12.0548 14.0885 12.225C14.3828 12.3952 14.7592 12.2946 14.9294 12.0004L13.864 11.3842ZM2.37155 2.31488C2.13003 2.554 2.12809 2.94364 2.36722 3.18516C2.60634 3.42667 2.99597 3.42861 3.23749 3.18949L2.37155 2.31488ZM13.6306 2.36953C10.4961 -0.764997 5.43083 -0.796735 2.31705 2.31705L3.18733 3.18733C5.81223 0.56242 10.0982 0.577674 12.7604 3.23981L13.6306 2.36953ZM2.31705 2.31705L1.27797 3.35613L2.14825 4.22641L3.18733 3.18733L2.31705 2.31705ZM1.71001 4.40665L3.79867 4.41714L3.80486 3.18639L1.7162 3.17589L1.71001 4.40665ZM2.32848 3.78818L2.31799 1.69952L1.08724 1.7057L1.09773 3.79436L2.32848 3.78818ZM8 1.23077C11.7385 1.23077 14.7692 4.26146 14.7692 8H16C16 3.58172 12.4183 0 8 0V1.23077ZM8 14.7692C4.26146 14.7692 1.23077 11.7385 1.23077 8H0C0 12.4183 3.58172 16 8 16V14.7692ZM11.3842 13.864C10.3892 14.4396 9.23397 14.7692 8 14.7692V16C9.45616 16 10.8231 15.6104 12.0004 14.9294L11.3842 13.864ZM14.7692 8C14.7692 9.23397 14.4396 10.3892 13.864 11.3842L14.9294 12.0004C15.6104 10.8231 16 9.45616 16 8H14.7692ZM3.23749 3.18949C4.46119 1.97792 6.14274 1.23077 8 1.23077V0C5.80547 0 3.81631 0.884439 2.37155 2.31488L3.23749 3.18949Z" fill="#999999"/>
</svg>
