<svg width="20" height="18" viewBox="0 0 20 18" fill="none" xmlns="http://www.w3.org/2000/svg">
<path d="M18.4118 9.94118V5.70588C18.4118 4.4578 17.916 3.26085 17.0334 2.37832C16.1509 1.4958 14.954 1 13.7059 1H5.70588C4.4578 1 3.26085 1.4958 2.37832 2.37832C1.4958 3.26085 1 4.4578 1 5.70588V12.2941C1 12.9121 1.12172 13.524 1.35821 14.095C1.59471 14.6659 1.94134 15.1847 2.37832 15.6217C3.26085 16.5042 4.4578 17 5.70588 17H11.5976" stroke="#999999" stroke-width="1.5" stroke-linecap="round" stroke-linejoin="round"/>
<path d="M1.24463 13.7058L3.82345 10.694C4.16213 10.3577 4.60661 10.1486 5.08169 10.1023C5.55677 10.056 6.03326 10.1753 6.43051 10.4399C6.82777 10.7046 7.30425 10.8238 7.77933 10.7775C8.25441 10.7312 8.6989 10.5222 9.03757 10.1858L11.2305 7.99286C11.8606 7.36061 12.6949 6.97282 13.5844 6.89869C14.474 6.82456 15.3609 7.06892 16.087 7.58815L18.4117 9.3858M5.95051 7.27757C6.15568 7.27633 6.3586 7.2347 6.54768 7.15504C6.73676 7.07538 6.9083 6.95926 7.0525 6.81331C7.19671 6.66736 7.31075 6.49443 7.38813 6.3044C7.4655 6.11438 7.50469 5.91097 7.50345 5.7058C7.50222 5.50063 7.46058 5.29771 7.38092 5.10863C7.30127 4.91955 7.18515 4.74801 7.03919 4.60381C6.89324 4.4596 6.72032 4.34556 6.53029 4.26819C6.34026 4.19081 6.13686 4.15162 5.93169 4.15286C5.51733 4.15536 5.12093 4.32235 4.82969 4.61712C4.53846 4.91188 4.37625 5.31026 4.37875 5.72463C4.38124 6.13899 4.54824 6.53539 4.843 6.82662C5.13777 7.11785 5.53615 7.28006 5.95051 7.27757Z" stroke="#999999" stroke-width="1.5" stroke-linecap="round" stroke-linejoin="round"/>
<path d="M16.0186 11.8235V16.5294" stroke="#999999" stroke-width="1.5" stroke-miterlimit="10" stroke-linecap="round"/>
<path d="M18.1766 13.8047L16.3253 11.9534C16.2851 11.913 16.2373 11.8809 16.1846 11.8591C16.1319 11.8372 16.0755 11.8259 16.0185 11.8259C15.9615 11.8259 15.905 11.8372 15.8523 11.8591C15.7997 11.8809 15.7519 11.913 15.7116 11.9534L13.8604 13.8047" stroke="#999999" stroke-width="1.5" stroke-linecap="round" stroke-linejoin="round"/>
</svg>
