<svg width="20" height="20" viewBox="0 0 20 20" fill="none" xmlns="http://www.w3.org/2000/svg">
<path fill-rule="evenodd" clip-rule="evenodd" d="M12.8727 13.5H7.12734C5.12402 13.5 3.5 15.124 3.5 17.1273C3.5 17.6261 3.82174 17.96 4.18831 18.0207C5.57134 18.2499 7.62685 18.5 10 18.5C12.3731 18.5 14.4287 18.2499 15.8117 18.0207C16.1783 17.96 16.5 17.6261 16.5 17.1273C16.5 15.124 14.876 13.5 12.8727 13.5ZM7.12734 12C4.29559 12 2 14.2956 2 17.1273C2 18.2954 2.79076 19.3096 3.94314 19.5005C5.3854 19.7395 7.52524 20 10 20C12.4748 20 14.6146 19.7395 16.0569 19.5005C17.2092 19.3096 18 18.2954 18 17.1273C18 14.2956 15.7044 12 12.8727 12H7.12734Z" fill="#939393"/>
<path fill-rule="evenodd" clip-rule="evenodd" d="M6.5 5C6.5 6.933 8.067 8.5 10 8.5C11.933 8.5 13.5 6.933 13.5 5C13.5 3.067 11.933 1.5 10 1.5C8.067 1.5 6.5 3.067 6.5 5ZM10 0C7.23858 0 5 2.23858 5 5C5 7.76142 7.23858 10 10 10C12.7614 10 15 7.76142 15 5C15 2.23858 12.7614 0 10 0Z" fill="#939393"/>
</svg>
