<svg width="14" height="16" viewBox="0 0 14 16" fill="none" xmlns="http://www.w3.org/2000/svg">
<path d="M5.95349 9.67442V11.1628C3.48747 11.1628 1.48837 13.1619 1.48837 15.6279H0C0 12.3399 2.66547 9.67442 5.95349 9.67442ZM5.95349 8.93023C3.48651 8.93023 1.48837 6.93209 1.48837 4.46512C1.48837 1.99814 3.48651 0 5.95349 0C8.42047 0 10.4186 1.99814 10.4186 4.46512C10.4186 6.93209 8.42047 8.93023 5.95349 8.93023ZM5.95349 7.44186C7.59814 7.44186 8.93023 6.10977 8.93023 4.46512C8.93023 2.82047 7.59814 1.48837 5.95349 1.48837C4.30884 1.48837 2.97674 2.82047 2.97674 4.46512C2.97674 6.10977 4.30884 7.44186 5.95349 7.44186ZM7.88435 13.2551C7.83829 13.0613 7.81395 12.8591 7.81395 12.6512C7.81395 12.4433 7.83829 12.2411 7.88428 12.0473L7.14634 11.6213L7.89053 10.3323L8.62899 10.7586C8.92153 10.4819 9.27821 10.2723 9.67442 10.1543V9.30233H11.1628V10.1543C11.559 10.2723 11.9156 10.4819 12.2081 10.7586L12.9467 10.3322L13.6909 11.6212L12.9529 12.0473C12.9989 12.2411 13.0233 12.4433 13.0233 12.6512C13.0233 12.859 12.9989 13.0612 12.9529 13.255L13.6909 13.681L12.9468 14.97L12.2082 14.5436C11.9157 14.8204 11.5591 15.03 11.1629 15.1479V16H9.67449V15.148C9.27829 15.0301 8.9216 14.8205 8.62906 14.5437L7.8906 14.9701L7.14634 13.6811L7.88435 13.2551ZM10.4186 13.7674C11.0351 13.7674 11.5349 13.2676 11.5349 12.6512C11.5349 12.0347 11.0351 11.5349 10.4186 11.5349C9.80212 11.5349 9.30233 12.0347 9.30233 12.6512C9.30233 13.2676 9.80212 13.7674 10.4186 13.7674Z" fill="#999999"/>
</svg>
