<svg width="24" height="24" viewBox="0 0 24 24" fill="none" xmlns="http://www.w3.org/2000/svg">
<path d="M12 18C12.34 18 12.6252 17.8848 12.8556 17.6544C13.086 17.424 13.2008 17.1392 13.2 16.8C13.1992 16.4608 13.084 16.176 12.8544 15.9456C12.6248 15.7152 12.34 15.6 12 15.6C11.66 15.6 11.3752 15.7152 11.1456 15.9456C10.916 16.176 10.8008 16.4608 10.8 16.8C10.7992 17.1392 10.9144 17.4244 11.1456 17.6556C11.3768 17.8868 11.6616 18.0016 12 18ZM12 13.2C12.34 13.2 12.6252 13.0848 12.8556 12.8544C13.086 12.624 13.2008 12.3392 13.2 12V7.2C13.2 6.86 13.0848 6.5752 12.8544 6.3456C12.624 6.116 12.3392 6.0008 12 6C11.6608 5.9992 11.376 6.1144 11.1456 6.3456C10.9152 6.5768 10.8 6.8616 10.8 7.2V12C10.8 12.34 10.9152 12.6252 11.1456 12.8556C11.376 13.086 11.6608 13.2008 12 13.2ZM12 24C10.34 24 8.78 23.6848 7.32 23.0544C5.86 22.424 4.59 21.5692 3.51 20.49C2.43 19.4108 1.5752 18.1408 0.945601 16.68C0.316001 15.2192 0.000801518 13.6592 1.51899e-06 12C-0.00079848 10.3408 0.314401 8.7808 0.945601 7.32C1.5768 5.8592 2.4316 4.5892 3.51 3.51C4.5884 2.4308 5.8584 1.576 7.32 0.9456C8.7816 0.3152 10.3416 0 12 0C13.6584 0 15.2184 0.3152 16.68 0.9456C18.1416 1.576 19.4116 2.4308 20.49 3.51C21.5684 4.5892 22.4236 5.8592 23.0556 7.32C23.6876 8.7808 24.0024 10.3408 24 12C23.9976 13.6592 23.6824 15.2192 23.0544 16.68C22.4264 18.1408 21.5716 19.4108 20.49 20.49C19.4084 21.5692 18.1384 22.4244 16.68 23.0556C15.2216 23.6868 13.6616 24.0016 12 24Z" fill="white"/>
</svg>
